# xmcd
#
# Track frame offsets:
#	150
#	28159
#	46584
#	73479
#	90306
#	111334
#	142963
#	162502
#	192430
#	211851
#
# Disc length: 3236 seconds
#
# Revision: 1
# Processed by: cddbd v1.5.1PL0 Copyright (c) Steve Scherf et al.
# Submitted via: audiograbber 1.83.01
#
DISCID=8c0ca20a
DTITLE=Robin Bibi Band - Live Therapy Disc 1
DYEAR=1900
DGENRE=Blues
TTITLE0=Language Of Your Soul
TTITLE1=Shake Your Moneymaker
TTITLE2=Hey Mama
TTITLE3=Fire
TTITLE4=Big Boss Man
TTITLE5=Need Your Love So Bad
TTITLE6=Tore Down
TTITLE7=Little Wing
TTITLE8=Oh Well
TTITLE9=Black Magic Woman
EXTD=
EXTT0=
EXTT1=
EXTT2=
EXTT3=
EXTT4=
EXTT5=
EXTT6=
EXTT7=
EXTT8=
EXTT9=
PLAYORDER=
